<svg xmlns="http://www.w3.org/2000/svg" viewBox="0 0 652.24 124.45"><defs><style>.cls-1{fill:#05c6c1;}.cls-1,.cls-2{stroke:#05c6c1;stroke-miterlimit:10;}.cls-2{fill:#fff;}</style></defs><title>Asset 3</title><g id="Layer_2" data-name="Layer 2"><g id="Layer_1-2" data-name="Layer 1"><path class="cls-1" d="M160.18,3.15V121.3a2.65,2.65,0,0,1-2.65,2.65H133.72a2.65,2.65,0,0,1-2.65-2.65V31.12a2.65,2.65,0,0,0-2.66-2.65H117.78a2.65,2.65,0,0,1-2.17-4.18L131.47,1.63A2.66,2.66,0,0,1,133.65.5h23.88A2.65,2.65,0,0,1,160.18,3.15Z"/><path class="cls-2" d="M78,80h6.31A2.66,2.66,0,0,1,87,82.61v28.77L84.32,114H57.86a2.65,2.65,0,0,1-2.17-4.17L75.84,81.08A2.64,2.64,0,0,1,78,80Z"/><path class="cls-2" d="M126.1,36.08V121.3a2.65,2.65,0,0,1-2.65,2.65H94.68L92,121.3V114h-.09V80H92V58.8a2.64,2.64,0,0,1,.48-1.52l15.91-22.72a2.64,2.64,0,0,1,2.17-1.13h12.86A2.65,2.65,0,0,1,126.1,36.08Z"/><path class="cls-1" d="M123.18,4.68,40.46,122.82A2.66,2.66,0,0,1,38.29,124H3.16A2.65,2.65,0,0,1,1,119.78L83.72,1.63A2.64,2.64,0,0,1,85.89.5H121A2.66,2.66,0,0,1,123.18,4.68Z"/><path class="cls-1" d="M191.66,120.9,209.51,2.76A2.65,2.65,0,0,1,212.13.5h17.61a2.66,2.66,0,0,1,2.62,2.26L250.2,120.9a2.65,2.65,0,0,1-2.62,3H235.35a2.65,2.65,0,0,1-2.63-2.3L230,101.06a2.64,2.64,0,0,0-2.63-2.3H214.52a2.65,2.65,0,0,0-2.63,2.3l-2.74,20.59a2.65,2.65,0,0,1-2.63,2.3H194.29A2.65,2.65,0,0,1,191.66,120.9Zm30.28-80.26-.5-3.19h-1l-.5,3.19-4.81,36a2.66,2.66,0,0,0,2.63,3h6.37a2.66,2.66,0,0,0,2.63-3Z"/><path class="cls-1" d="M254.36,24.55V17.71a2.63,2.63,0,0,1,1.95-2.55A27.79,27.79,0,0,0,269.55,7l.18-.21A28.71,28.71,0,0,0,273,1.86,2.61,2.61,0,0,1,275.32.5h6.62a2.65,2.65,0,0,1,2.65,2.65V121.3a2.65,2.65,0,0,1-2.65,2.65H269.1a2.65,2.65,0,0,1-2.65-2.65V29.86a2.65,2.65,0,0,0-2.65-2.65H257A2.65,2.65,0,0,1,254.36,24.55Z"/><path class="cls-1" d="M326.54.5h12.84A2.65,2.65,0,0,1,342,3.15V121.3a2.65,2.65,0,0,1-2.65,2.65H326.54a2.65,2.65,0,0,1-2.65-2.65V3.15A2.65,2.65,0,0,1,326.54.5Z"/><path class="cls-1" d="M352.44,16.49V3.15A2.66,2.66,0,0,1,355.1.5h47.09a2.66,2.66,0,0,1,2.66,2.65V16.49a2.65,2.65,0,0,1-2.66,2.65H390.37a2.66,2.66,0,0,0-2.66,2.66v99.5a2.65,2.65,0,0,1-2.65,2.65H372.23a2.66,2.66,0,0,1-2.66-2.65V21.8a2.66,2.66,0,0,0-2.65-2.66H355.1A2.65,2.65,0,0,1,352.44,16.49Z"/><path class="cls-2" d="M478.28,19.14H458.56a2.66,2.66,0,0,0-2.66,2.66V48.91a2.66,2.66,0,0,0,2.66,2.65H470a2.66,2.66,0,0,1,2.66,2.65V67.55A2.65,2.65,0,0,1,470,70.2H458.56a2.66,2.66,0,0,0-2.66,2.66V121.3a2.65,2.65,0,0,1-2.65,2.65H440.42a2.66,2.66,0,0,1-2.66-2.65V3.15A2.66,2.66,0,0,1,440.42.5h37.86a2.65,2.65,0,0,1,2.65,2.65V16.49A2.65,2.65,0,0,1,478.28,19.14Z"/><path class="cls-2" d="M494.33.5h12.83a2.66,2.66,0,0,1,2.66,2.65V121.3a2.66,2.66,0,0,1-2.66,2.65H494.33a2.65,2.65,0,0,1-2.65-2.65V3.15A2.65,2.65,0,0,1,494.33.5Z"/><path class="cls-2" d="M555.27,121.77l-8.61-47.7a2.66,2.66,0,0,0-2.61-2.19h0a2.66,2.66,0,0,0-2.66,2.66V121.3a2.65,2.65,0,0,1-2.65,2.65H525.91a2.66,2.66,0,0,1-2.66-2.65V3.15A2.66,2.66,0,0,1,525.91.5h15.48c21.67,0,30.91,12.26,30.91,35.61,0,11.52-2.82,22-8.88,27.13a2.65,2.65,0,0,0-.89,2.52l10.67,55a2.66,2.66,0,0,1-2.61,3.16h-12.7A2.66,2.66,0,0,1,555.27,121.77ZM550,21a10.32,10.32,0,0,0-5.59-2.36,2.65,2.65,0,0,0-3,2.64v31a2.65,2.65,0,0,0,3.05,2.63A10.82,10.82,0,0,0,550,52.4c2.69-2.35,4.87-6.89,4.87-15.62S552.65,23.34,550,21Z"/><path class="cls-2" d="M616.24,124a2.66,2.66,0,0,1-2.63-2.26L602.36,46.35l-.67-5.2h-1V121.3A2.65,2.65,0,0,1,598,124H586.54a2.65,2.65,0,0,1-2.65-2.65V3.15A2.65,2.65,0,0,1,586.54.5h17.32a2.67,2.67,0,0,1,2.61,2.16l10.32,54.2,0,.15.83,6.48H618l.83-6.48,0-.15,10.32-54.2A2.66,2.66,0,0,1,631.77.5h17.32a2.65,2.65,0,0,1,2.65,2.65V121.3a2.65,2.65,0,0,1-2.65,2.65H637.6A2.65,2.65,0,0,1,635,121.3V41.15h-1l-.67,5.2L622,121.69a2.65,2.65,0,0,1-2.62,2.26Z"/></g></g></svg>